<svg width="32" height="32" viewBox="0 0 32 32" fill="none" xmlns="http://www.w3.org/2000/svg">
<path d="M17 21.2267H17.8667C18.7333 21.2267 19.4533 20.4533 19.4533 19.52C19.4533 18.36 19.04 18.1333 18.36 17.8933L17.0133 17.4267V21.2267H17Z" fill="white"/>
<path d="M15.96 2.53333C8.60005 2.56 2.64005 8.54667 2.66672 15.9067C2.69338 23.2667 8.68005 29.2267 16.04 29.2C23.4 29.1733 29.36 23.1867 29.3334 15.8267C29.3067 8.46667 23.32 2.52 15.96 2.53333ZM19.0134 16C20.0534 16.36 21.4534 17.1333 21.4534 19.52C21.4534 21.5733 19.84 23.2267 17.8667 23.2267H17V24C17 24.5467 16.5467 25 16 25C15.4534 25 15 24.5467 15 24V23.2267H14.52C12.3334 23.2267 10.56 21.3867 10.56 19.12C10.56 18.5733 11.0134 18.12 11.56 18.12C12.1067 18.12 12.56 18.5733 12.56 19.12C12.56 20.28 13.44 21.2267 14.52 21.2267H15V16.72L12.9867 16C11.9467 15.64 10.5467 14.8667 10.5467 12.48C10.5467 10.4267 12.16 8.77333 14.1334 8.77333H15V8C15 7.45333 15.4534 7 16 7C16.5467 7 17 7.45333 17 8V8.77333H17.48C19.6667 8.77333 21.44 10.6133 21.44 12.88C21.44 13.4267 20.9867 13.88 20.44 13.88C19.8934 13.88 19.44 13.4267 19.44 12.88C19.44 11.72 18.56 10.7733 17.48 10.7733H17V15.28L19.0134 16Z" fill="white"/>
<path d="M12.5601 12.4933C12.5601 13.6533 12.9734 13.88 13.6534 14.12L15.0001 14.5867V10.7733H14.1334C13.2667 10.7733 12.5601 11.5467 12.5601 12.4933Z" fill="white"/>
</svg>
