<svg width="32" height="32" viewBox="0 0 32 32" fill="none" xmlns="http://www.w3.org/2000/svg">
<path d="M8.05 24.25C7.8 24.2 7.6 24.15 7.35 24.05C7.1 23.95 6.9 23.9 6.7 23.8C6.25 23.6 5.85 23.35 5.45 23.05C4.65 22.5 4 21.75 3.5 20.85C3 20 2.7 19 2.65 18.05C2.6 17.55 2.65 17.1 2.7 16.6C2.75 16.35 2.8 16.15 2.85 15.9C2.9 15.65 3 15.45 3.05 15.2L3.1 15.9C3.1 16.15 3.15 16.35 3.2 16.6C3.25 17.05 3.35 17.5 3.45 17.9C3.65 18.75 3.95 19.55 4.4 20.3C4.85 21.05 5.35 21.75 6 22.4C6.3 22.7 6.65 23 7 23.3C7.15 23.45 7.35 23.6 7.55 23.75L8.05 24.25ZM7.9 26.05C7.75 26.15 7.55 26.2 7.35 26.25C7.15 26.3 7 26.35 6.8 26.35C6.45 26.4 6.05 26.45 5.65 26.4C4.9 26.35 4.1 26.15 3.45 25.8C2.75 25.45 2.15 24.9 1.75 24.25C1.55 23.95 1.35 23.6 1.2 23.25C1.15 23.1 1.1 22.9 1.05 22.7C1.05 22.55 1 22.4 1 22.2C1.15 22.35 1.25 22.45 1.35 22.6C1.5 22.75 1.6 22.9 1.7 23C1.95 23.25 2.15 23.5 2.4 23.7C2.9 24.15 3.4 24.55 4 24.85C4.55 25.15 5.2 25.4 5.8 25.6C6.1 25.7 6.45 25.75 6.8 25.85C6.95 25.9 7.15 25.9 7.3 25.95C7.55 26 7.7 26 7.9 26.05ZM19.2 1.74999C19.45 1.79999 19.65 1.89999 19.9 1.99999C20.15 2.09999 20.35 2.19999 20.55 2.29999C21 2.54999 21.4 2.79999 21.8 3.09999C22.6 3.69999 23.25 4.49999 23.7 5.39999C24.15 6.29999 24.4 7.29999 24.4 8.24999C24.4 8.74999 24.35 9.19999 24.25 9.69999C24.2 9.94999 24.15 10.15 24.05 10.4C23.95 10.65 23.9 10.85 23.8 11.05L23.75 10.35C23.75 10.1 23.75 9.89999 23.7 9.64999L23.55 8.29999C23.4 7.44999 23.1 6.59999 22.7 5.79999C22.3 4.99999 21.8 4.29999 21.2 3.64999C20.9 3.29999 20.55 2.99999 20.25 2.64999C20.1 2.49999 19.9 2.34999 19.7 2.19999L19.2 1.74999ZM23.55 1.54999C23.75 1.59999 23.9 1.64999 24.05 1.74999C24.2 1.79999 24.4 1.89999 24.55 1.99999C24.85 2.19999 25.15 2.39999 25.45 2.64999C26 3.14999 26.45 3.74999 26.7 4.44999C27 5.14999 27.1 5.89999 27 6.64999C26.95 6.99999 26.85 7.34999 26.75 7.69999C26.7 7.84999 26.6 8.04999 26.55 8.19999C26.45 8.34999 26.4 8.49999 26.25 8.64999V7.64999C26.25 7.29999 26.2 6.99999 26.2 6.69999C26.1 6.04999 26 5.44999 25.75 4.89999C25.5 4.29999 25.2 3.79999 24.85 3.24999C24.65 2.99999 24.45 2.69999 24.25 2.44999C24.15 2.29999 24.05 2.19999 23.9 2.04999C23.8 1.79999 23.65 1.64999 23.55 1.54999Z" fill="#42ADE2"/>
<path d="M5.00006 9C4.00006 9.45 3.65006 10.65 4.10006 11.65L10.4001 24.8L13.9001 23.15L7.60006 9.95C7.15006 8.95 6.00006 8.5 5.00006 9ZM21.5501 19.45L25.2501 17.65L18.0501 2.65C17.5501 1.65 16.3501 1.2 15.3001 1.7C14.3001 2.2 13.8501 3.4 14.3501 4.45L21.5501 19.45Z" fill="#D6A57C"/>
<path d="M15.35 1.69999C15.25 1.74999 15.15 1.79999 15.05 1.89999C16 1.64999 17 2.09999 17.45 2.99999L24.65 18L25.3 17.7L18.1 2.69999C17.6 1.64999 16.4 1.19999 15.35 1.69999Z" fill="#B58360"/>
<path d="M13.9 23.1L17.75 21.25L10.4 5.95C9.89996 4.9 8.59996 4.40001 7.54996 4.90001C6.49996 5.40001 6.04996 6.70001 6.54996 7.75001L13.9 23.1Z" fill="#D6A57C"/>
<path d="M7.55 4.95C7.45 5 7.35 5.05 7.25 5.15C8.2 4.9 9.3 5.35 9.75 6.3L14.3 15.85L15.4 16.5L10.4 6C9.9 4.9 8.65 4.45 7.55 4.95Z" fill="#B58360"/>
<path d="M17.15 20.05L21 18.2L13.65 2.9C13.15 1.85 11.85 1.35 10.8 1.9C9.74996 2.4 9.29996 3.7 9.79996 4.75L17.15 20.05Z" fill="#D6A57C"/>
<path d="M10.8 1.85C10.7 1.9 10.6 2 10.5 2.05C11.45 1.8 12.55 2.25 13 3.2L18.15 14L19.25 14.65L13.65 2.9C13.15 1.8 11.85 1.35 10.8 1.85ZM4.99995 9C4.89995 9.05 4.79995 9.1 4.69995 9.2C5.59995 8.95 6.54995 9.4 6.94995 10.3L10.7 18.15L11.8 18.8L7.59995 10C7.14995 8.95 5.99995 8.5 4.99995 9Z" fill="#B58360"/>
<path d="M30.3999 7.49999C29.0499 6.44999 26.8499 7.59999 25.7499 11.2C24.9999 13.7 24.8999 14.45 23.2999 15.2L22.3999 13.35C22.3999 13.35 8.19995 20.2 8.74995 21.3C8.74995 21.3 10.4499 26.6 13.3499 29.05C17.65 32.7 27.6999 28.8 28.1499 19.25C28.3999 13.7 31.8499 8.64999 30.3999 7.49999Z" fill="#D6A57C"/>
<path d="M30.4 7.49999C30.15 7.29999 29.85 7.19999 29.55 7.14999C29.6 7.19999 29.7 7.19999 29.75 7.24999C31.25 8.39999 29.7 11.05 28.85 13.45C28.15 15.35 27.55 17.3 27.65 19.2C28.05 27.5 19.7 31.45 14.7 29.95C19.6 32 28.7 28.1 28.3 19.45C28.2 17.55 28.75 15.7 29.5 13.7C30.3 11.3 31.85 8.64999 30.4 7.49999Z" fill="#B58360"/>
<path d="M23.75 15C20.65 15.35 16.1 19.8 19.3 24.65C16.95 19.75 20.8 16.45 23.25 15.3C23.5 15.1 23.75 15 23.75 15Z" fill="#B58360"/>
</svg>
