<svg width="16" height="16" viewBox="0 0 16 16" fill="none" xmlns="http://www.w3.org/2000/svg">
<path d="M8.00004 12.6666C10.5774 12.6666 12.6667 10.5773 12.6667 7.99998C12.6667 5.42265 10.5774 3.33331 8.00004 3.33331C5.42271 3.33331 3.33337 5.42265 3.33337 7.99998C3.33337 10.5773 5.42271 12.6666 8.00004 12.6666Z" fill="#121A29"/>
<path d="M7.99996 15.3067C7.63329 15.3067 7.33329 15.0334 7.33329 14.6667V14.6134C7.33329 14.2467 7.63329 13.9467 7.99996 13.9467C8.36663 13.9467 8.66663 14.2467 8.66663 14.6134C8.66663 14.98 8.36663 15.3067 7.99996 15.3067ZM12.76 13.4267C12.5866 13.4267 12.42 13.36 12.2866 13.2334L12.2 13.1467C11.94 12.8867 11.94 12.4667 12.2 12.2067C12.46 11.9467 12.88 11.9467 13.14 12.2067L13.2266 12.2934C13.4866 12.5534 13.4866 12.9734 13.2266 13.2334C13.1 13.36 12.9333 13.4267 12.76 13.4267ZM3.23996 13.4267C3.06663 13.4267 2.89996 13.36 2.76663 13.2334C2.50663 12.9734 2.50663 12.5534 2.76663 12.2934L2.85329 12.2067C3.11329 11.9467 3.53329 11.9467 3.79329 12.2067C4.05329 12.4667 4.05329 12.8867 3.79329 13.1467L3.70663 13.2334C3.57996 13.36 3.40663 13.4267 3.23996 13.4267ZM14.6666 8.66669H14.6133C14.2466 8.66669 13.9466 8.36669 13.9466 8.00002C13.9466 7.63335 14.2466 7.33335 14.6133 7.33335C14.98 7.33335 15.3066 7.63335 15.3066 8.00002C15.3066 8.36669 15.0333 8.66669 14.6666 8.66669ZM1.38663 8.66669H1.33329C0.966626 8.66669 0.666626 8.36669 0.666626 8.00002C0.666626 7.63335 0.966626 7.33335 1.33329 7.33335C1.69996 7.33335 2.02663 7.63335 2.02663 8.00002C2.02663 8.36669 1.75329 8.66669 1.38663 8.66669ZM12.6733 3.99335C12.5 3.99335 12.3333 3.92669 12.2 3.80002C11.94 3.54002 11.94 3.12002 12.2 2.86002L12.2866 2.77335C12.5466 2.51335 12.9666 2.51335 13.2266 2.77335C13.4866 3.03335 13.4866 3.45335 13.2266 3.71335L13.14 3.80002C13.0133 3.92669 12.8466 3.99335 12.6733 3.99335ZM3.32663 3.99335C3.15329 3.99335 2.98663 3.92669 2.85329 3.80002L2.76663 3.70669C2.50663 3.44669 2.50663 3.02669 2.76663 2.76669C3.02663 2.50669 3.44663 2.50669 3.70663 2.76669L3.79329 2.85335C4.05329 3.11335 4.05329 3.53335 3.79329 3.79335C3.66663 3.92669 3.49329 3.99335 3.32663 3.99335ZM7.99996 2.02669C7.63329 2.02669 7.33329 1.75335 7.33329 1.38669V1.33335C7.33329 0.966687 7.63329 0.666687 7.99996 0.666687C8.36663 0.666687 8.66663 0.966687 8.66663 1.33335C8.66663 1.70002 8.36663 2.02669 7.99996 2.02669Z" fill="#121A29"/>
</svg>
