<svg width="16" height="17" viewBox="0 0 16 17" fill="none" xmlns="http://www.w3.org/2000/svg">
<g clip-path="url(#clip0_102_303)">
<path d="M15.8425 13.88C13.4955 9.59249 11.1475 5.30499 8.79995 1.01749C8.72167 0.869112 8.60437 0.744909 8.46071 0.658272C8.31705 0.571635 8.15246 0.525848 7.9847 0.525848C7.81694 0.525848 7.65235 0.571635 7.50869 0.658272C7.36503 0.744909 7.24773 0.869112 7.16945 1.01749C4.8222 5.30499 2.47295 9.59249 0.12695 13.88C-0.2363 14.5422 0.2267 15.4007 0.94145 15.4007H15.029C15.425 15.4007 15.691 15.1875 15.8297 14.8982C16.0042 14.6227 16.051 14.257 15.8435 13.8795" fill="#FFC502"/>
<path d="M7.22931 9.11925L7.00706 5.80375C6.96556 5.158 6.94556 4.694 6.94556 4.4125C6.94556 4.029 7.04556 3.73075 7.24606 3.5155C7.44731 3.3015 7.71181 3.194 8.03981 3.194C8.43556 3.194 8.70131 3.33175 8.83431 3.6055C8.96856 3.881 9.03656 4.2765 9.03656 4.79325C9.03656 5.097 9.02006 5.4065 8.98706 5.72025L8.68956 9.1325C8.65731 9.539 8.58856 9.8505 8.48281 10.0673C8.37631 10.285 8.20081 10.3925 7.95556 10.3925C7.70756 10.3925 7.53306 10.2877 7.43756 10.0782C7.33931 9.868 7.27056 9.54825 7.22931 9.11925ZM7.99731 13.6735C7.71606 13.6735 7.47081 13.583 7.26056 13.4003C7.05031 13.2183 6.94556 12.9633 6.94556 12.6357C6.94556 12.35 7.04556 12.1058 7.24606 11.9055C7.44731 11.704 7.69256 11.604 7.98381 11.604C8.27506 11.604 8.52206 11.704 8.72806 11.9055C8.93181 12.1058 9.03656 12.35 9.03656 12.6357C9.03656 12.9583 8.93181 13.2128 8.72506 13.3968C8.5263 13.5779 8.26619 13.6768 7.99731 13.6735Z" fill="#231F20"/>
</g>
<defs>
<clipPath id="clip0_102_303">
<rect width="16" height="16" fill="white" transform="translate(0 0.5)"/>
</clipPath>
</defs>
</svg>
